# xmcd
#
# Track frame offsets: 
#        150
#        15922
#        30182
#        49268
#        63950
#        76210
#        87740
#        99593
#        111142
#        124376
#        138543
#        151550
#        170029
#        182393
#
# Disc length: 2652 seconds
#
# Revision: 1
# Processed by: cddbd v1.5.2PL0 Copyright (c) Steve Scherf et al.
# Submitted via: ExactAudioCopy v1.0b4
#
DISCID=a80a5a0e
DTITLE=The Sheepdogs - The Sheepdogs
DYEAR=2012
DGENRE=Rock
TTITLE0=Laid Back
TTITLE1=Feeling Good
TTITLE2=Alright Ok
TTITLE3=Never Gonna Get My Love
TTITLE4=Ewan's Blues
TTITLE5=The Way It Is
TTITLE6=Javelina!
TTITLE7=I Need Help
TTITLE8=Is Your Dream Worth Dying For?
TTITLE9=How Late, How Long 
TTITLE10=Sharp Sounds
TTITLE11=In My Mind
TTITLE12=While We're Young
TTITLE13=It Ain't Easy To Go
EXTD=
EXTT0=
EXTT1=
EXTT2=
EXTT3=
EXTT4=
EXTT5=
EXTT6=
EXTT7=
EXTT8=
EXTT9=
EXTT10=
EXTT11=
EXTT12=
EXTT13=
PLAYORDER=
